<svg xmlns="http://www.w3.org/2000/svg" viewBox="0 0 90.35 76.81"><defs><style>.cls-1{fill:#038c73;}.cls-2{fill:#00adbf;}.cls-3{fill:#d9cb89;}.cls-18,.cls-4,.cls-6{fill:#8c8c8c;}.cls-4,.cls-9{opacity:0.1;}.cls-5{fill:#4e5a5e;}.cls-6{opacity:0.3;}.cls-11,.cls-7,.cls-9{fill:#8d1c1c;}.cls-8{fill:#5397a3;}.cls-10{fill:#ee3230;}.cls-11{opacity:0.5;}.cls-12{fill:#f3cb52;}.cls-13{fill:#e6b494;}.cls-14{fill:#f2f2f3;}.cls-15{fill:#5c4f46;}.cls-16,.cls-17{fill:none;stroke:#ee3230;stroke-miterlimit:10;}.cls-16{stroke-width:0.21px;}.cls-17{stroke-width:0.18px;}.cls-18{opacity:0.2;}</style></defs><g id="Layer_7" data-name="Layer 7"><ellipse class="cls-1" cx="43.13" cy="65.57" rx="40.19" ry="11.24"/><ellipse class="cls-2" cx="43.07" cy="65.75" rx="35.69" ry="9.98"/><ellipse class="cls-3" cx="42.75" cy="65.69" rx="32.06" ry="8.18"/><ellipse class="cls-1" cx="41.84" cy="65.35" rx="26" ry="4.85"/><ellipse class="cls-2" cx="41.15" cy="65.3" rx="22.2" ry="4.14"/><ellipse class="cls-3" cx="40.48" cy="65.25" rx="18.13" ry="3.38"/><ellipse class="cls-1" cx="40.25" cy="65.14" rx="15.89" ry="1.93"/><ellipse class="cls-2" cx="40.11" cy="65.04" rx="15.12" ry="1.04"/><ellipse class="cls-3" cx="40.55" cy="65.07" rx="12.76" ry="0.58"/><path class="cls-4" d="M24.33,69.14l-6.59-4.6A1,1,0,0,1,18,62.78l15.59-6a1,1,0,0,1,.93.11L44.59,64a1,1,0,0,1-.39,1.81l-19.12,3.5A1,1,0,0,1,24.33,69.14Z" transform="translate(-5.79 -9.68)"/><path class="cls-5" d="M40.64,8.69" transform="translate(-5.79 -9.68)"/><polygon class="cls-4" points="90.34 44.42 90.36 43.1 74.79 45.49 74.88 45.95 90.34 44.42"/><polygon class="cls-4" points="90.1 53.54 90.1 52.33 64.36 59.59 64.55 60.03 90.1 53.54"/><polygon class="cls-4" points="90.18 58.73 90.27 56.57 84.45 60.23 84.77 60.62 90.18 58.73"/><polygon class="cls-3" points="71.94 10.2 73.81 9.98 79.14 60.98 78.44 61.06 71.94 10.2"/><polygon class="cls-3" points="69.85 9.61 67.98 9.42 63.28 60.48 63.98 60.55 69.85 9.61"/><polygon class="cls-3" points="71.79 9.22 69.91 9.28 71.8 48.92 72.5 48.9 71.79 9.22"/><polygon class="cls-6" points="71.39 9.17 70.28 9.21 71.93 48.85 72.35 48.84 71.39 9.17"/><polygon class="cls-1" points="80.94 12.18 61.35 12.18 65.39 0 76.91 0 80.94 12.18"/><ellipse class="cls-7" cx="79.11" cy="23.18" rx="0.34" ry="0.74" transform="translate(-8.75 5.67) rotate(-10.88)"/><ellipse class="cls-7" cx="79.41" cy="25.21" rx="0.34" ry="0.74" transform="translate(-9.12 5.77) rotate(-10.88)"/><ellipse class="cls-7" cx="74.04" cy="25.03" rx="0.74" ry="0.34" transform="translate(29.69 83.33) rotate(-79.12)"/><ellipse class="cls-7" cx="74.37" cy="23" rx="0.74" ry="0.34" transform="translate(31.95 82.01) rotate(-79.12)"/><path class="cls-4" d="M70.72,61.52c.81,3.15,1.73,6.89-.94,7.57s-5.49-1.34-6.31-4.49.69-6.26,3.36-6.93S69.91,58.36,70.72,61.52Z" transform="translate(-5.79 -9.68)"/><path class="cls-8" d="M68.18,58.4l3-5.48c.36-1.09-.92-2-2.63-2.23h0c-1.7-.22-3.17.33-3.3,1.24L63.17,67.36c-.12.91,1.16,1.82,2.86,2h0C67.73,69.63,68.3,59.12,68.18,58.4Z" transform="translate(-5.79 -9.68)"/><path class="cls-8" d="M34,58.09l-3-5.48c-.35-1.1.93-2,2.63-2.23h0c1.7-.23,3.18.33,3.3,1.23L39,67.05c.13.9-1.16,1.82-2.86,2h0C34.44,69.31,33.88,58.81,34,58.09Z" transform="translate(-5.79 -9.68)"/><path class="cls-8" d="M64.89,69H37.6a3.54,3.54,0,0,1-3.84-3.71h0c0-2-.75-4.2.85-4.2l31.6-.13c1.6,0,.64,2.28.64,4.33h0C66.85,67.29,65.55,69,64.89,69Z" transform="translate(-5.79 -9.68)"/><path class="cls-2" d="M64.35,56.69h-26c-2.42,0-3.66-6-3.66-13.34h0C34.67,36,35.91,30,37.43,30h26c1.53,0,2.77,6,2.77,13.35h0C66.23,50.72,65,56.69,64.35,56.69Z" transform="translate(-5.79 -9.68)"/><path class="cls-2" d="M66.56,62H37.29c-2.72,0-4.11-1.37-4.11-3.07h0a3.09,3.09,0,0,1,3.11-3.07H65.56A3.08,3.08,0,0,1,68.66,59h0C68.66,60.65,67.27,62,66.56,62Z" transform="translate(-5.79 -9.68)"/><ellipse class="cls-5" cx="39.44" cy="29.96" rx="0.81" ry="0.67"/><ellipse class="cls-5" cx="39.44" cy="38.66" rx="0.81" ry="0.67"/><ellipse class="cls-5" cx="49.6" cy="29.69" rx="0.81" ry="0.67"/><ellipse class="cls-5" cx="49.73" cy="39.06" rx="0.81" ry="0.67"/><path class="cls-1" d="M13.24,33.89c-.82.3-.87,7.63.52,11.42s6.15,10.17,7,9.88-5.26-6.5-6.64-10.28S14.07,33.6,13.24,33.89Z" transform="translate(-5.79 -9.68)"/><path class="cls-1" d="M18.54,27.5s-1.2,4.56-2.26,5.91S14,35.53,13.46,35.15s0-1.77,1-3.12S18.54,27.5,18.54,27.5Z" transform="translate(-5.79 -9.68)"/><path class="cls-9" d="M18.43,27.65a34.29,34.29,0,0,1-2,5.35c-.81,1.34-2.54,2.29-2.76,2.16s.9-1.52,1.72-2.86S18.43,27.65,18.43,27.65Z" transform="translate(-5.79 -9.68)"/><path class="cls-1" d="M18.86,31.3s-1.62,4.44-2.8,5.68-2.51,1.91-3,1.49.13-1.77,1.32-3S18.86,31.3,18.86,31.3Z" transform="translate(-5.79 -9.68)"/><path class="cls-9" d="M18.74,31.44a34.52,34.52,0,0,1-2.47,5.15c-.94,1.26-2.74,2.06-2.95,1.91s1-1.43,2-2.69S18.74,31.44,18.74,31.44Z" transform="translate(-5.79 -9.68)"/><path class="cls-1" d="M18.9,34.86s-1.71,4.4-2.91,5.63-2.54,1.86-3,1.43.16-1.77,1.37-3S18.9,34.86,18.9,34.86Z" transform="translate(-5.79 -9.68)"/><path class="cls-9" d="M18.78,35a33.89,33.89,0,0,1-2.57,5.1c-1,1.24-2.78,2-3,1.85s1.07-1.41,2-2.65S18.78,35,18.78,35Z" transform="translate(-5.79 -9.68)"/><path class="cls-1" d="M19.58,37.54S17.87,42,16.67,43.17s-2.54,1.86-3,1.43.17-1.77,1.37-3S19.58,37.54,19.58,37.54Z" transform="translate(-5.79 -9.68)"/><path class="cls-9" d="M19.46,37.68a33.89,33.89,0,0,1-2.57,5.1c-1,1.25-2.78,2-3,1.85s1.07-1.41,2-2.65S19.46,37.68,19.46,37.68Z" transform="translate(-5.79 -9.68)"/><path class="cls-1" d="M20.78,40s-1.71,4.4-2.91,5.62-2.55,1.87-3,1.43.17-1.77,1.37-3S20.78,40,20.78,40Z" transform="translate(-5.79 -9.68)"/><path class="cls-9" d="M20.65,40.15a34.54,34.54,0,0,1-2.56,5.11c-1,1.24-2.78,2-3,1.85s1.06-1.41,2-2.66S20.65,40.15,20.65,40.15Z" transform="translate(-5.79 -9.68)"/><path class="cls-1" d="M5.79,28.89s4.54,1.46,5.84,2.58,2,2.42,1.6,2.88-1.8-.07-3.1-1.2S5.79,28.89,5.79,28.89Z" transform="translate(-5.79 -9.68)"/><path class="cls-9" d="M5.94,29a36.33,36.33,0,0,1,5.29,2.27c1.3.89,2.16,2.65,2,2.86s-1.48-1-2.79-1.86S5.94,29,5.94,29Z" transform="translate(-5.79 -9.68)"/><path class="cls-1" d="M6.05,32s4.39,1.87,5.57,3.1,1.78,2.59,1.33,3-1.79-.24-3-1.48S6.05,32,6.05,32Z" transform="translate(-5.79 -9.68)"/><path class="cls-9" d="M6.19,32.12a35,35,0,0,1,5.05,2.74c1.22,1,1.92,2.83,1.75,3s-1.38-1.1-2.6-2.1S6.19,32.12,6.19,32.12Z" transform="translate(-5.79 -9.68)"/><path class="cls-1" d="M5.94,35s4.34,1.94,5.5,3.2,1.73,2.62,1.27,3S10.93,41,9.77,39.74,5.94,35,5.94,35Z" transform="translate(-5.79 -9.68)"/><path class="cls-9" d="M6.07,35.16a35.65,35.65,0,0,1,5,2.83c1.2,1,1.86,2.87,1.69,3.06S11.4,39.92,10.2,38.9,6.07,35.16,6.07,35.16Z" transform="translate(-5.79 -9.68)"/><path class="cls-1" d="M6.9,39.24s4.35,1.94,5.51,3.2,1.73,2.62,1.27,3S11.9,45.21,10.74,44,6.9,39.24,6.9,39.24Z" transform="translate(-5.79 -9.68)"/><path class="cls-9" d="M7,39.37a35.08,35.08,0,0,1,5,2.83c1.2,1,1.86,2.87,1.69,3.06s-1.36-1.13-2.55-2.15S7,39.37,7,39.37Z" transform="translate(-5.79 -9.68)"/><path class="cls-1" d="M7,44s4.69.87,6.12,1.83,2.31,2.13,2,2.65-1.79.15-3.23-.8S7,44,7,44Z" transform="translate(-5.79 -9.68)"/><path class="cls-9" d="M7.18,44.12a34.48,34.48,0,0,1,5.54,1.58c1.41.71,2.5,2.34,2.38,2.57s-1.59-.78-3-1.49S7.18,44.12,7.18,44.12Z" transform="translate(-5.79 -9.68)"/><path class="cls-1" d="M24.62,41.1c-.77-.19-4.51,5.33-5.38,8.88s-.49,10.71.28,10.9-.69-7.5.17-11.05S25.39,41.28,24.62,41.1Z" transform="translate(-5.79 -9.68)"/><path class="cls-1" d="M31.85,38.88s-3.21,2.85-4.7,3.34-2.82.47-3-.06S25,40.8,26.5,40.3,31.85,38.88,31.85,38.88Z" transform="translate(-5.79 -9.68)"/><path class="cls-9" d="M31.7,38.94A31.1,31.1,0,0,1,27.49,42a4.51,4.51,0,0,1-3.18.28c-.1-.21,1.45-.71,2.74-1.32S31.7,38.94,31.7,38.94Z" transform="translate(-5.79 -9.68)"/><path class="cls-1" d="M30.17,41.91s-3.47,2.55-5,2.91-2.86.2-3-.34,1-1.27,2.52-1.63S30.17,41.91,30.17,41.91Z" transform="translate(-5.79 -9.68)"/><path class="cls-9" d="M30,42a32,32,0,0,1-4.47,2.67,4.47,4.47,0,0,1-3.19,0c-.08-.22,1.5-.57,2.85-1.06S30,42,30,42Z" transform="translate(-5.79 -9.68)"/><path class="cls-1" d="M28.4,44.62s-3.51,2.48-5,2.81-2.86.15-3-.39,1-1.26,2.55-1.59S28.4,44.62,28.4,44.62Z" transform="translate(-5.79 -9.68)"/><path class="cls-9" d="M28.24,44.66a31.69,31.69,0,0,1-4.51,2.59,4.54,4.54,0,0,1-3.2-.08c-.07-.22,1.52-.54,2.87-1S28.24,44.66,28.24,44.66Z" transform="translate(-5.79 -9.68)"/><path class="cls-1" d="M27.56,47s-3.51,2.49-5,2.81-2.86.16-3-.39,1-1.26,2.54-1.58S27.56,47,27.56,47Z" transform="translate(-5.79 -9.68)"/><path class="cls-9" d="M27.4,47a31.37,31.37,0,0,1-4.52,2.59,4.48,4.48,0,0,1-3.19-.07c-.07-.22,1.52-.55,2.87-1S27.4,47,27.4,47Z" transform="translate(-5.79 -9.68)"/><path class="cls-1" d="M27.21,49.44s-3.51,2.48-5,2.81-2.86.16-3-.39,1-1.26,2.55-1.59S27.21,49.44,27.21,49.44Z" transform="translate(-5.79 -9.68)"/><path class="cls-9" d="M27.05,49.48a31.69,31.69,0,0,1-4.51,2.59A4.44,4.44,0,0,1,19.35,52c-.08-.22,1.51-.54,2.86-1S27.05,49.48,27.05,49.48Z" transform="translate(-5.79 -9.68)"/><path class="cls-1" d="M21.52,33.64s2.69,3.34,3.1,4.83.3,2.82-.25,3-1.32-.94-1.73-2.43S21.52,33.64,21.52,33.64Z" transform="translate(-5.79 -9.68)"/><path class="cls-9" d="M21.57,33.8a31.7,31.7,0,0,1,2.85,4.32,4.39,4.39,0,0,1,.08,3.16c-.22.08-.62-1.47-1.16-2.78S21.57,33.8,21.57,33.8Z" transform="translate(-5.79 -9.68)"/><path class="cls-1" d="M20.15,36.11s2.37,3.57,2.64,5.09,0,2.84-.52,2.93-1.23-1.05-1.5-2.58S20.15,36.11,20.15,36.11Z" transform="translate(-5.79 -9.68)"/><path class="cls-9" d="M20.18,36.27a31.83,31.83,0,0,1,2.44,4.57A4.35,4.35,0,0,1,22.41,44c-.23.06-.49-1.52-.9-2.88S20.18,36.27,20.18,36.27Z" transform="translate(-5.79 -9.68)"/><path class="cls-1" d="M18.52,38.35s2.3,3.61,2.55,5.14,0,2.83-.58,2.92S19.28,45.33,19,43.8,18.52,38.35,18.52,38.35Z" transform="translate(-5.79 -9.68)"/><path class="cls-9" d="M18.56,38.51a31,31,0,0,1,2.34,4.61,4.38,4.38,0,0,1-.26,3.14c-.23.07-.46-1.52-.85-2.89S18.56,38.51,18.56,38.51Z" transform="translate(-5.79 -9.68)"/><path class="cls-1" d="M17.13,42s2.3,3.61,2.54,5.13,0,2.84-.58,2.92-1.2-1.08-1.45-2.6S17.13,42,17.13,42Z" transform="translate(-5.79 -9.68)"/><path class="cls-9" d="M17.16,42.17a31.21,31.21,0,0,1,2.35,4.61,4.36,4.36,0,0,1-.27,3.14c-.23.06-.46-1.53-.85-2.89S17.16,42.17,17.16,42.17Z" transform="translate(-5.79 -9.68)"/><path class="cls-1" d="M14.8,45.68s3.11,3,3.71,4.4.66,2.75.14,3-1.43-.77-2-2.19S14.8,45.68,14.8,45.68Z" transform="translate(-5.79 -9.68)"/><path class="cls-9" d="M14.87,45.83a30.83,30.83,0,0,1,3.39,3.93,4.37,4.37,0,0,1,.5,3.12c-.21.11-.81-1.38-1.52-2.61S14.87,45.83,14.87,45.83Z" transform="translate(-5.79 -9.68)"/><path class="cls-1" d="M34.69,34.8c-.81-.5-7.28,4.41-9.66,8.15s-4.76,12.13-4,12.63S23.22,46.7,25.61,43,35.5,35.31,34.69,34.8Z" transform="translate(-5.79 -9.68)"/><path class="cls-1" d="M43.87,35s-4.81,2-6.71,2-3.43-.55-3.43-1.23,1.54-1.22,3.43-1.22S43.87,35,43.87,35Z" transform="translate(-5.79 -9.68)"/><path class="cls-9" d="M43.67,35a38.73,38.73,0,0,1-6,1.92c-1.73.2-3.73-.63-3.76-.91s1.93-.25,3.66-.46S43.67,35,43.67,35Z" transform="translate(-5.79 -9.68)"/><path class="cls-1" d="M40.75,37.87s-5,1.6-6.87,1.43-3.37-.86-3.3-1.54,1.64-1.08,3.53-.91S40.75,37.87,40.75,37.87Z" transform="translate(-5.79 -9.68)"/><path class="cls-9" d="M40.54,37.86a39.43,39.43,0,0,1-6.18,1.36c-1.73.05-3.65-1-3.66-1.24s1.95-.08,3.69-.13S40.54,37.86,40.54,37.86Z" transform="translate(-5.79 -9.68)"/><path class="cls-1" d="M37.66,40.3s-5,1.51-6.9,1.3-3.34-.92-3.27-1.59,1.67-1,3.55-.85S37.66,40.3,37.66,40.3Z" transform="translate(-5.79 -9.68)"/><path class="cls-9" d="M37.46,40.29a39.69,39.69,0,0,1-6.21,1.25c-1.74,0-3.63-1-3.63-1.32s1.95,0,3.69,0S37.46,40.29,37.46,40.29Z" transform="translate(-5.79 -9.68)"/><path class="cls-1" d="M35.77,42.69s-5,1.51-6.9,1.31-3.35-.92-3.27-1.6,1.66-1,3.55-.84S35.77,42.69,35.77,42.69Z" transform="translate(-5.79 -9.68)"/><path class="cls-9" d="M35.56,42.68a39.5,39.5,0,0,1-6.2,1.25c-1.74,0-3.63-1-3.64-1.31s2,0,3.69-.06S35.56,42.68,35.56,42.68Z" transform="translate(-5.79 -9.68)"/><path class="cls-1" d="M34.4,45.39s-5,1.51-6.89,1.3-3.35-.92-3.27-1.6,1.66-1.05,3.54-.84S34.4,45.39,34.4,45.39Z" transform="translate(-5.79 -9.68)"/><path class="cls-9" d="M34.2,45.37A38.34,38.34,0,0,1,28,46.62c-1.74,0-3.64-1-3.64-1.31s1.95,0,3.69-.06S34.2,45.37,34.2,45.37Z" transform="translate(-5.79 -9.68)"/><path class="cls-1" d="M34.05,25.05s1.78,4.87,1.67,6.74S35,35.14,34.28,35.1s-1.15-1.59-1-3.46S34.05,25.05,34.05,25.05Z" transform="translate(-5.79 -9.68)"/><path class="cls-9" d="M34.05,25.25a37.81,37.81,0,0,1,1.57,6.06C35.73,33,34.77,35,34.49,35s-.15-1.93-.25-3.64S34.05,25.25,34.05,25.25Z" transform="translate(-5.79 -9.68)"/><path class="cls-1" d="M31.5,27.37s1.33,5,1,6.86S31.48,37.5,30.8,37.4s-1-1.69-.71-3.54S31.5,27.37,31.5,27.37Z" transform="translate(-5.79 -9.68)"/><path class="cls-9" d="M31.48,27.57a37.34,37.34,0,0,1,1,6.17c-.05,1.72-1.19,3.55-1.47,3.54s0-1.93.09-3.64S31.48,27.57,31.48,27.57Z" transform="translate(-5.79 -9.68)"/><path class="cls-1" d="M28.76,29.32s1.23,5,.91,6.87-1.13,3.25-1.8,3.14-1-1.7-.65-3.55S28.76,29.32,28.76,29.32Z" transform="translate(-5.79 -9.68)"/><path class="cls-9" d="M28.74,29.51a37.68,37.68,0,0,1,.89,6.2c-.09,1.71-1.26,3.52-1.54,3.51s.07-1.93.16-3.64S28.74,29.51,28.74,29.51Z" transform="translate(-5.79 -9.68)"/><path class="cls-1" d="M25.73,33s1.22,5,.9,6.88S25.5,43.11,24.83,43s-1-1.71-.65-3.55S25.73,33,25.73,33Z" transform="translate(-5.79 -9.68)"/><path class="cls-9" d="M25.7,33.18a37.68,37.68,0,0,1,.89,6.2c-.09,1.71-1.25,3.52-1.54,3.51s.07-1.93.16-3.65S25.7,33.18,25.7,33.18Z" transform="translate(-5.79 -9.68)"/><path class="cls-1" d="M21.62,36.32s2.4,4.6,2.53,6.47-.32,3.42-1,3.47S21.8,44.83,21.67,43,21.62,36.32,21.62,36.32Z" transform="translate(-5.79 -9.68)"/><path class="cls-9" d="M21.64,36.52A37.33,37.33,0,0,1,24,42.33c.33,1.68-.37,3.71-.65,3.77s-.39-1.89-.72-3.58S21.64,36.52,21.64,36.52Z" transform="translate(-5.79 -9.68)"/><path class="cls-10" d="M22.91,69H14a1,1,0,0,1-1-.83l-2.19-13.3a1,1,0,0,1,1-1.16H25.1a1,1,0,0,1,1,1.16L23.9,68.16A1,1,0,0,1,22.91,69Z" transform="translate(-5.79 -9.68)"/><path class="cls-11" d="M19.11,53.78l6.07-.1a.84.84,0,0,1,.84,1L23.78,68.26a.86.86,0,0,1-.84.71l-3.14-.11" transform="translate(-5.79 -9.68)"/><polygon class="cls-12" points="32.66 64.51 31.26 64.51 30.18 59.26 33.74 59.26 32.66 64.51"/><polygon class="cls-12" points="57.87 64.51 56.48 64.51 55.4 59.26 58.95 59.26 57.87 64.51"/><path class="cls-13" d="M63.88,53.54c-.71-1.9-3.48-4.57-12.5.79-5.69,3.37-9.16,3-8,5.81,1.45,3.41.21-3.6,11.12-2.69C61.13,58,64.6,55.43,63.88,53.54Z" transform="translate(-5.79 -9.68)"/><path class="cls-1" d="M58.23,45c-1.09-9.08-2.63-7.85-6.65-8.19S44.86,36,44.42,40.2c-1.5,14,1.86,11.4,5.88,11.74S59.31,54.08,58.23,45Z" transform="translate(-5.79 -9.68)"/><circle class="cls-14" cx="47.53" cy="33.83" r="1.22"/><circle class="cls-14" cx="46.03" cy="34.23" r="1.22"/><circle class="cls-14" cx="45.15" cy="32.43" r="1.22"/><circle class="cls-14" cx="44.06" cy="34.37" r="1.22"/><circle class="cls-14" cx="42.87" cy="32.86" r="1.22"/><circle class="cls-14" cx="42.14" cy="34.28" r="1.22"/><circle class="cls-14" cx="44.07" cy="32.88" r="1.22"/><circle class="cls-14" cx="47.01" cy="32.65" r="1.22"/><circle class="cls-14" cx="48.71" cy="33.74" r="1.22"/><path class="cls-15" d="M58.65,32c0,5.46-3.39,5.05-7.18,5.05s-6.54.41-6.54-5.05,3.07-9.89,6.86-9.89S58.65,26.54,58.65,32Z" transform="translate(-5.79 -9.68)"/><path class="cls-13" d="M55.76,29.27c0,2.6-.92,6.58-3.94,6.38-4-.27-5.06-3.78-5.06-6.38a4.5,4.5,0,1,1,9,0Z" transform="translate(-5.79 -9.68)"/><polygon class="cls-13" points="47.53 28.86 44.8 28.86 44.49 24.6 47.84 24.6 47.53 28.86"/><path class="cls-15" d="M55.94,27.51c0,1.89-2.45,1.75-5.18,1.75S46,29.4,46,27.51s2.22-3.42,5-3.42S55.94,25.62,55.94,27.51Z" transform="translate(-5.79 -9.68)"/><path class="cls-16" d="M51.72,31.33c-.3-.72.6-1,1.51-1s1.87,0,1.81.78c-.1,1.32-.68,1.6-1.56,1.53A1.94,1.94,0,0,1,51.72,31.33Z" transform="translate(-5.79 -9.68)"/><path class="cls-16" d="M50.87,31.41c.3-.72-.6-1-1.52-1s-1.87,0-1.81.79c.1,1.32.68,1.6,1.56,1.53A2,2,0,0,0,50.87,31.41Z" transform="translate(-5.79 -9.68)"/><rect class="cls-17" x="45.12" y="21.44" width="0.72" height="0.17"/><path class="cls-10" d="M49.41,60.57c-6.5-1.34-10.58-4.33-9.79-6.43s3.69-5.12,12.65.42Z" transform="translate(-5.79 -9.68)"/><polygon class="cls-12" points="48.17 44.56 42.26 44.56 40.99 34.73 49.45 34.73 48.17 44.56"/><polygon class="cls-7" points="47.2 44.57 46.59 44.56 46.66 35.02 48.01 35.04 47.2 44.57"/><polygon class="cls-7" points="43.91 44.49 43.23 44.49 42.41 34.97 43.82 34.97 43.91 44.49"/><rect class="cls-7" x="44.79" y="34.96" width="1.02" height="9.52"/><ellipse class="cls-13" cx="42.4" cy="42.83" rx="1.62" ry="1.38"/><ellipse class="cls-15" cx="44.01" cy="13.09" rx="1.3" ry="1.22"/><ellipse class="cls-15" cx="46.03" cy="12.46" rx="1.35" ry="1.27"/><ellipse class="cls-15" cx="51.33" cy="15.68" rx="1.35" ry="1.27"/><ellipse class="cls-15" cx="50.11" cy="14.31" rx="1.35" ry="1.27"/><ellipse class="cls-15" cx="48.07" cy="13.33" rx="1.35" ry="1.27"/><ellipse class="cls-15" cx="49.12" cy="26.7" rx="1.35" ry="1.27"/><ellipse class="cls-15" cx="50.26" cy="27.24" rx="1.35" ry="1.27"/><ellipse class="cls-15" cx="51.48" cy="25.71" rx="1.35" ry="1.27"/><ellipse class="cls-15" cx="52.4" cy="23.89" rx="1.35" ry="1.27"/><ellipse class="cls-15" cx="53.01" cy="21.76" rx="1.35" ry="1.27"/><ellipse class="cls-15" cx="52.63" cy="19.4" rx="1.35" ry="1.27"/><ellipse class="cls-15" cx="51.73" cy="17.47" rx="1.35" ry="1.27"/><ellipse class="cls-15" cx="40.2" cy="25.16" rx="1.35" ry="1.27"/><ellipse class="cls-15" cx="39.44" cy="23.59" rx="1.35" ry="1.27"/><ellipse class="cls-15" cx="39.51" cy="21.38" rx="1.35" ry="1.27"/><ellipse class="cls-15" cx="39.44" cy="19.33" rx="1.35" ry="1.27"/><ellipse class="cls-15" cx="40.2" cy="17.2" rx="1.35" ry="1.27"/><ellipse class="cls-15" cx="40.81" cy="15.52" rx="1.35" ry="1.27"/><ellipse class="cls-15" cx="42.38" cy="14.03" rx="1.35" ry="1.27"/><ellipse class="cls-15" cx="44.01" cy="18.72" rx="1.35" ry="1.27"/><ellipse class="cls-15" cx="41.88" cy="19.02" rx="1.35" ry="1.27"/><ellipse class="cls-15" cx="41.29" cy="26.17" rx="1.35" ry="1.27"/><ellipse class="cls-15" cx="50.11" cy="18.92" rx="1.35" ry="1.27"/><ellipse class="cls-15" cx="47.82" cy="19.02" rx="1.35" ry="1.27"/><ellipse class="cls-15" cx="45.92" cy="19.14" rx="1.35" ry="1.27"/><path class="cls-13" d="M56.69,57.78s5,3.29,6.25,2.21c.41-.35-.07-1.72-.43-2.14-.84-1-4.88-1.81-4.88-1.81Z" transform="translate(-5.79 -9.68)"/><path class="cls-10" d="M55,60.23c6.51-1.29,10.57-4.35,9.74-6.55s-3.8-5.41-12.72.23Z" transform="translate(-5.79 -9.68)"/><ellipse class="cls-13" cx="48.75" cy="42.74" rx="1.62" ry="1.38"/><path class="cls-18" d="M50.07,35.24c0-.33.79.48,1.77.48s1.77-.8,1.77-.47-.79.6-1.77.6S50.07,35.57,50.07,35.24Z" transform="translate(-5.79 -9.68)"/><path class="cls-1" d="M54.15,37.47a3.39,3.39,0,0,1-3.63,3.08,3.4,3.4,0,0,1-3.64-3.08Z" transform="translate(-5.79 -9.68)"/><path class="cls-10" d="M56.94,26.71c0,.48-2.22-.28-5.22-.28s-5.66.76-5.66.28,2.44-2.39,5.44-2.39S56.94,26.24,56.94,26.71Z" transform="translate(-5.79 -9.68)"/></g></svg>